HIERARCHY
ROOT Hips
{
  OFFSET 54.3981 95.7643 12.398
  CHANNELS 6 Xposition Yposition Zposition Zrotation Xrotation Yrotation
  JOINT spine
  {
    OFFSET 0 7.96568 0.458067
    CHANNELS 3 Zrotation Xrotation Yrotation
    JOINT spine1
    {
      OFFSET 0 10.2431 0
      CHANNELS 3 Zrotation Xrotation Yrotation
      JOINT spine2
      {
        OFFSET 0 9.81475 0
        CHANNELS 3 Zrotation Xrotation Yrotation
        JOINT Neck
        {
          OFFSET 0 25.1986 1.20138
          CHANNELS 3 Zrotation Xrotation Yrotation
          JOINT Head
          {
            OFFSET 0 7.61315 0
            CHANNELS 3 Zrotation Xrotation Yrotation
            End Site
            {
              OFFSET 0 18.4281 -6.07733
            }
          }
        }
        JOINT RightShoulder
        {
          OFFSET -4.1327 10.5992 -0.575451
          CHANNELS 3 Zrotation Xrotation Yrotation
          JOINT RightArm
          {
            OFFSET 0 13.9018 0
            CHANNELS 3 Zrotation Xrotation Yrotation
            JOINT RightArmRoll
            {
              OFFSET 0 7.01788 0
              CHANNELS 3 Zrotation Xrotation Yrotation
              JOINT RightForeArm
              {
                OFFSET 0 20.4406 0
                CHANNELS 3 Zrotation Xrotation Yrotation
                JOINT RightForeArmRoll
                {
                  OFFSET 0 7.87515 0
                  CHANNELS 3 Zrotation Xrotation Yrotation
                  JOINT RightHand
                  {
                    OFFSET 0 15.8037 0
                    CHANNELS 3 Zrotation Xrotation Yrotation
                    End Site
                    {
                      OFFSET 0 0 0
                    }
                  }
                }
              }
            }
          }
        }
        JOINT LeftShoulder
        {
          OFFSET 4.1327 10.5992 -0.575451
          CHANNELS 3 Zrotation Xrotation Yrotation
          JOINT LeftArm
          {
            OFFSET 0 13.9018 0
            CHANNELS 3 Zrotation Xrotation Yrotation
            JOINT LeftArmRoll
            {
              OFFSET 0 7.01788 0
              CHANNELS 3 Zrotation Xrotation Yrotation
              JOINT LeftForeArm
              {
                OFFSET 0 20.4406 0
                CHANNELS 3 Zrotation Xrotation Yrotation
                JOINT LeftForeArmRoll
                {
                  OFFSET 0 7.87515 0
                  CHANNELS 3 Zrotation Xrotation Yrotation
                  JOINT LeftHand
                  {
                    OFFSET 0 15.8037 0
                    CHANNELS 3 Zrotation Xrotation Yrotation
                    End Site
                    {
                      OFFSET 0 0 0
                    }
                  }
                }
              }
            }
          }
        }
      }
    }
  }
  JOINT RightUpLeg
  {
    OFFSET -7.06048 -1.2947 -1.0861
    CHANNELS 3 Zrotation Xrotation Yrotation
    JOINT RightUpLegRoll
    {
      OFFSET 0 18.5308 0
      CHANNELS 3 Zrotation Xrotation Yrotation
      JOINT RightLeg
      {
        OFFSET 0 -22.9476 0
        CHANNELS 3 Zrotation Xrotation Yrotation
        JOINT RightLegRoll
        {
          OFFSET 0 23.0226 0
          CHANNELS 3 Zrotation Xrotation Yrotation
          JOINT RightFoot
          {
            OFFSET 0 19.1625 0
            CHANNELS 3 Zrotation Xrotation Yrotation
            JOINT RightToeBase
            {
              OFFSET 0 16.0188 0
              CHANNELS 3 Zrotation Xrotation Yrotation
              End Site
              {
                OFFSET 0.00678979 7.75782 -0.894207
              }
            }
          }
        }
      }
    }
  }
  JOINT LeftUpLeg
  {
    OFFSET 7.06048 -1.2947 -1.0861
    CHANNELS 3 Zrotation Xrotation Yrotation
    JOINT LeftUpLegRoll
    {
      OFFSET 0 18.5309 0
      CHANNELS 3 Zrotation Xrotation Yrotation
      JOINT LeftLeg
      {
        OFFSET 0 22.9475 0
        CHANNELS 3 Zrotation Xrotation Yrotation
        JOINT LeftLegRoll
        {
          OFFSET 0 23.2355 0
          CHANNELS 3 Zrotation Xrotation Yrotation
          JOINT LeftFoot
          {
            OFFSET 0 18.9496 0
            CHANNELS 3 Zrotation Xrotation Yrotation
            JOINT LeftToeBase
            {
              OFFSET 0 16.0188 0
              CHANNELS 3 Zrotation Xrotation Yrotation
              End Site
              {
                OFFSET -0.0304289 7.75782 -0.894207
              }
            }
          }
        }
      }
    }
  }
}
MOTION
Frames: 4
Frame Time: 0.00208333
54.366 95.8219 11.0244 -0.773081 -1.40183 -4.89006 0.24921 -2.25581 -0.0283039 0.506849 -0.494259 -0.0690139 0.507819 1.15078 -0.0772504 -5.66995 19.5149 2.86432 2.83544 2.77293 1.2756 70.0178 3.68995 0.457107 110.355 18.4417 22.9845 -1.06108e-005 1.23363e-007 -1.89359e-006 -1.78636 -0.012297 0.177646 4.48393e-006 -4.44774e-006 -3.04053 8.03022 -4.95136 0.697629 -75.1031 -1.56123 2.56778 -101.928 23.4376 -31.7506 -1.12459e-005 -6.69949e-007 -3.01035e-006 12.7443 -0.0863504 -1.47497 6.68563e-007 1.98269e-006 3.02538 -8.03123 -4.95136 -0.697588 175.286 -0.88927 -2.2455 180 7.01534e-015 178.867 178.043 3.86623 179.575 3.98562e-006 -6.56714e-007 0.0355536 -18.9179 68.047 19.5692 8.13661 25.2344 -3.48537 -174.623 -1.1663 0.601007 4.54188e-006 -4.6773e-006 -1.18695 -2.22071 -5.53223 0.0622805 2.92584e-006 -1.62902e-006 -0.0850066 19.4765 68.6777 -20.1259 -8.13649 25.2327 3.48773 
54.3614 95.8116 11.0371 -0.773893 -1.39955 -4.89586 0.24894 -2.25599 -0.0282388 0.506207 -0.495018 -0.0694672 0.507179 1.15002 -0.0774218 -5.72903 19.4923 2.88016 2.87818 2.78724 1.27658 69.9899 3.6932 0.462909 110.314 18.4286 23.0864 -1.06108e-005 1.23363e-007 -1.89359e-006 -1.86093 -0.0126616 0.184925 4.48393e-006 -4.44774e-006 -3.04053 8.03022 -4.95136 0.697629 -75.1179 -1.57978 2.57719 -101.902 23.4359 -31.7357 -1.12459e-005 -6.69949e-007 -3.01035e-006 12.7135 -0.0863702 -1.47153 6.68563e-007 1.98269e-006 3.02538 -8.03123 -4.95136 -0.697588 175.287 -0.894583 -2.24608 180 7.01534e-015 178.867 178.042 3.8564 179.575 3.98562e-006 -6.56714e-007 0.0355536 -18.9192 68.0486 19.5707 8.13661 25.2344 -3.48537 -174.621 -1.20754 0.604348 4.54188e-006 -4.6773e-006 -1.18694 -2.21938 -5.43695 0.0614318 2.92584e-006 -1.62902e-006 -0.0826698 19.4442 68.6418 -20.0913 -8.13649 25.2327 3.48773 
54.3572 95.8124 11.0365 -0.774783 -1.3974 -4.90174 0.248742 -2.25609 -0.0281346 0.505727 -0.495624 -0.0698844 0.506699 1.14941 -0.0775417 -5.7895 19.4682 2.89617 2.92242 2.80293 1.27744 69.9611 3.69655 0.468877 110.275 18.4148 23.1872 -1.06108e-005 1.23363e-007 -1.89359e-006 -1.93546 -0.0130184 0.192199 4.48393e-006 -4.44774e-006 -3.04053 8.03022 -4.95136 0.697629 -75.1328 -1.59823 2.58657 -101.877 23.4346 -31.7212 -1.12459e-005 -6.69949e-007 -3.01035e-006 12.6835 -0.0863944 -1.46817 6.68563e-007 1.98269e-006 3.02538 -8.03123 -4.95136 -0.697588 175.288 -0.900122 -2.24672 180 7.01534e-015 178.867 178.04 3.84647 179.576 3.98562e-006 -6.56714e-007 0.0355536 -18.9205 68.0502 19.5721 8.13661 25.2344 -3.48537 -174.62 -1.25273 0.60804 4.54188e-006 -4.6773e-006 -1.18694 -2.21792 -5.33222 0.0604982 2.92584e-006 -1.62902e-006 -0.0800766 19.409 68.6025 -20.0536 -8.13649 25.2327 3.48773 
54.3568 95.8222 11.0397 -0.775729 -1.39536 -4.90769 0.248595 -2.25614 -0.028003 0.505359 -0.496122 -0.0702763 0.506331 1.14891 -0.0776255 -5.85092 19.4429 2.91229 2.96773 2.8196 1.27822 69.9317 3.69995 0.474961 110.239 18.4006 23.2873 -1.06108e-005 1.23363e-007 -1.89359e-006 -2.00996 -0.0133697 0.199469 4.48393e-006 -4.44774e-006 -3.04053 8.03022 -4.95136 0.697629 -75.1479 -1.61661 2.59594 -101.852 23.4336 -31.7069 -1.12459e-005 -6.69949e-007 -3.01035e-006 12.6541 -0.0864215 -1.46486 6.68563e-007 1.98269e-006 3.02538 -8.03123 -4.95136 -0.697588 175.29 -0.90582 -2.24741 180 7.01534e-015 178.867 178.039 3.83646 179.576 3.98562e-006 -6.56714e-007 0.0355536 -18.9219 68.0517 19.5735 8.13661 25.2344 -3.48537 -174.618 -1.30069 0.611978 4.54188e-006 -4.6773e-006 -1.18693 -2.21638 -5.22088 0.0595054 2.92584e-006 -1.62902e-006 -0.0773038 19.3719 68.5608 -20.0138 -8.13649 25.2327 3.48773 
